HIERARCHY
ROOT Hips
{
	OFFSET	0.00	0.00	0.00
	CHANNELS 6 Xposition Yposition Zposition Zrotation Xrotation Yrotation
	JOINT LeftUpLeg
	{
		OFFSET	 0.126116	-0.065224	 0.014019
		CHANNELS 3 Zrotation Xrotation Yrotation
		JOINT LeftLeg
		{
			OFFSET	 0.000000	 0.569914	 0.000000
			CHANNELS 3 Zrotation Xrotation Yrotation
			JOINT LeftFoot
			{
				OFFSET	 0.000000	 0.544423	 0.000000
				CHANNELS 3 Zrotation Xrotation Yrotation
				JOINT LeftToeBase
				{
					OFFSET	 0.000000	 0.207117	 0.000000
					CHANNELS 3 Zrotation Xrotation Yrotation
					End Site
					{
						OFFSET	 0.000000	 0.207117	 0.000000
					}
				}
			}
		}
	}
	JOINT RightUpLeg
	{
		OFFSET	-0.124023	-0.065224	 0.008373
		CHANNELS 3 Zrotation Xrotation Yrotation
		JOINT RightLeg
		{
			OFFSET	 0.000000	 0.570047	 0.000000
			CHANNELS 3 Zrotation Xrotation Yrotation
			JOINT RightFoot
			{
				OFFSET	 0.000000	 0.544354	 0.000000
				CHANNELS 3 Zrotation Xrotation Yrotation
				JOINT RightToeBase
				{
					OFFSET	 0.000000	 0.207540	 0.000000
					CHANNELS 3 Zrotation Xrotation Yrotation
					End Site
					{
						OFFSET	 0.000000	 0.207540	 0.000000
					}
				}
			}
		}
	}
	JOINT Spine
	{
		OFFSET	 0.000184	 0.117403	 0.007763
		CHANNELS 3 Zrotation Xrotation Yrotation
		JOINT Spine1
		{
			OFFSET	 0.000000	 0.137269	 0.000000
			CHANNELS 3 Zrotation Xrotation Yrotation
			JOINT Spine2
			{
				OFFSET	 0.000000	 0.156879	 0.000000
				CHANNELS 3 Zrotation Xrotation Yrotation
				JOINT LeftShoulder
				{
					OFFSET	 0.080501	 0.160143	 0.002496
					CHANNELS 3 Zrotation Xrotation Yrotation
					JOINT LeftArm
					{
						OFFSET	 0.000000	 0.164363	 0.000000
						CHANNELS 3 Zrotation Xrotation Yrotation
						JOINT LeftForeArm
						{
							OFFSET	 0.000000	 0.364576	 0.000000
							CHANNELS 3 Zrotation Xrotation Yrotation
							JOINT LeftHand
							{
								OFFSET	 0.000000	 0.360812	 0.000000
								CHANNELS 3 Zrotation Xrotation Yrotation
								JOINT LeftHandIndex1
								{
									OFFSET	 0.000000	 0.086006	 0.000000
									CHANNELS 3 Zrotation Xrotation Yrotation
									JOINT LeftHandIndex2
									{
										OFFSET	 0.000000	 0.047237	 0.000000
										CHANNELS 3 Zrotation Xrotation Yrotation
										JOINT LeftHandIndex3
										{
											OFFSET	-0.004284	 0.038165	 0.000551
											CHANNELS 3 Zrotation Xrotation Yrotation
											End Site
											{
												OFFSET	-0.004284	 0.038165	 0.000551
											}
										}
									}
								}
							}
						}
					}
				}
				JOINT Neck
				{
					OFFSET	 0.000000	 0.176489	 0.000000
					CHANNELS 3 Zrotation Xrotation Yrotation
					JOINT Head
					{
						OFFSET	 0.000000	 0.077941	 0.001747
						CHANNELS 3 Zrotation Xrotation Yrotation
						End Site
						{
							OFFSET	 0.000000	 0.077941	 0.001747
						}
					}
				}
				JOINT RightShoulder
				{
					OFFSET	-0.080363	 0.159706	-0.000306
					CHANNELS 3 Zrotation Xrotation Yrotation
					JOINT RightArm
					{
						OFFSET	 0.000000	 0.164196	 0.000000
						CHANNELS 3 Zrotation Xrotation Yrotation
						JOINT RightForeArm
						{
							OFFSET	 0.000000	 0.365611	 0.000000
							CHANNELS 3 Zrotation Xrotation Yrotation
							JOINT RightHand
							{
								OFFSET	 0.000000	 0.360648	 0.000000
								CHANNELS 3 Zrotation Xrotation Yrotation
								JOINT RightHandIndex1
								{
									OFFSET	 0.000000	 0.069977	 0.000000
									CHANNELS 3 Zrotation Xrotation Yrotation
									JOINT RightHandIndex2
									{
										OFFSET	 0.000000	 0.052305	 0.000000
										CHANNELS 3 Zrotation Xrotation Yrotation
										JOINT RightHandIndex3
										{
											OFFSET	 0.009002	 0.042196	 0.000782
											CHANNELS 3 Zrotation Xrotation Yrotation
											End Site
											{
												OFFSET	 0.009002	 0.042196	 0.000782
											}
										}
									}
								}
							}
						}
					}
				}
			}
		}
	}
}
MOTION
Frames:    12
Frame Time: 0.03333334
 0.436619	 1.273884	 0.406556	 0.529817	-2.356329	-177.254800	-179.248900	 6.805280	-11.920970	 3.474630	-12.851350	 5.978309	 5.369668	 69.806520	-1.592470	 1.292262	 28.425850	-2.713146	 176.672900	 7.645390	 13.544110	-2.067372	-10.629940	 0.844724	 0.647797	 66.241310	-5.830535	-1.288183	 28.361890	 2.710176	-0.096980	 6.513119	-2.059325	 0.625840	-6.615534	-1.137856	 0.002769	 7.636188	 2.913785	-117.459200	-0.779897	 89.958420	 26.822420	-1.035500	-6.640606	 4.617816	-0.375349	 34.720920	-15.163830	 4.985248	-4.695171	-6.580301	 5.266122	 0.000000	 0.000000	 0.000000	 0.000000	 0.000000	 0.000000	 0.000000	 4.795020	 27.116100	 1.713064	-3.985862	-16.168640	 0.851801	 116.287700	-0.440213	-90.569100	-11.894760	-5.125106	 20.028820	-5.123383	 0.122107	-57.199080	-15.436170	-7.765846	 11.141820	 15.208500	 5.323790	 0.000000	 0.000000	 0.000000	 0.000000	 0.000000	 0.000000	 0.000000
 0.436717	 1.274231	 0.407131	 0.563896	-2.560253	-177.248100	-178.976000	 6.965326	-14.079670	 3.420441	-12.657660	 5.986267	 5.640172	 69.636090	-1.662830	 1.292262	 28.425850	-2.713146	 176.505100	 7.743352	 15.707640	-2.012222	-10.352740	 0.825606	 0.200124	 66.009320	-5.686193	-1.288183	 28.361890	 2.710176	-0.126424	 6.379187	-1.719843	 0.644484	-6.764597	-1.137827	-0.001547	 7.818553	 2.909095	-117.545400	-0.806170	 89.946730	 26.576900	-0.944859	-6.463942	 4.669889	-0.308546	 34.731000	-14.641400	 4.819962	-4.478892	-6.580301	 5.266122	 0.000000	 0.000000	 0.000000	 0.000000	 0.000000	 0.000000	 0.000000	 4.855007	 27.304790	 1.663277	-3.992502	-16.262850	 0.861890	 116.423600	-0.477740	-90.556180	-11.796480	-5.019495	 19.952720	-5.116571	 0.214519	-57.270360	-15.745850	-7.803192	 10.633510	 15.208500	 5.323790	 0.000000	 0.000000	 0.000000	 0.000000	 0.000000	 0.000000	 0.000000
 0.436905	 1.275152	 0.408437	 0.579778	-2.916912	-177.227500	-178.754200	 7.060619	-16.164000	 3.222499	-11.947640	 6.002238	 6.088066	 69.143170	-1.794739	 1.292262	 28.425850	-2.713146	 176.361900	 7.752188	 17.824440	-1.842759	-9.497752	 0.769876	-0.522386	 65.452550	-5.388062	-1.288183	 28.361890	 2.710176	-0.245863	 6.395371	-0.728112	 0.637075	-7.484227	-1.146960	 0.011620	 8.484835	 2.896275	-117.798000	-0.883095	 89.912120	 26.364150	-1.503224	-5.932710	 4.900070	-0.123404	 34.773930	-13.246920	 5.350002	-3.691651	-6.580301	 5.266122	 0.000000	 0.000000	 0.000000	 0.000000	 0.000000	 0.000000	 0.000000	 5.032407	 27.857310	 1.515637	-4.011926	-16.538750	 0.891780	 116.821900	-0.587519	-90.517760	-11.724110	-5.723811	 19.711760	-5.218255	 0.486133	-57.501080	-16.964270	-6.939126	 9.554773	 15.208500	 5.323790	 0.000000	 0.000000	 0.000000	 0.000000	 0.000000	 0.000000	 0.000000
 0.437190	 1.276776	 0.410702	 0.569117	-3.420970	-177.192500	-178.625600	 6.971644	-18.230190	 2.812169	-10.463480	 6.019150	 6.684823	 68.186340	-1.891790	 1.292262	 28.425850	-2.713146	 176.288900	 7.510069	 19.945900	-1.490594	-7.707427	 0.682542	-1.523844	 64.381640	-5.010361	-1.288183	 28.361890	 2.710176	-0.483532	 6.500851	 0.927741	 0.629648	-8.618797	-1.169717	 0.030800	 9.566072	 2.877471	-118.219900	-1.011215	 89.853610	 26.116610	-2.893972	-5.077199	 5.313685	 0.170100	 34.886010	-10.829390	 6.772075	-2.431062	-6.580301	 5.266122	 0.000000	 0.000000	 0.000000	 0.000000	 0.000000	 0.000000	 0.000000	 5.334515	 28.779570	 1.262873	-4.044275	-16.999150	 0.942893	 117.487400	-0.770233	-90.451910	-11.615550	-7.443712	 19.323540	-5.428788	 0.933776	-57.951240	-19.242250	-5.058387	 8.093357	 15.208500	 5.323790	 0.000000	 0.000000	 0.000000	 0.000000	 0.000000	 0.000000	 0.000000
 0.437583	 1.279265	 0.414194	 0.521828	-4.064569	-177.144000	-178.682400	 6.355360	-20.250350	 2.003700	-7.497752	 6.027253	 7.394705	 66.390720	-1.812440	 1.292262	 28.425850	-2.713146	 176.321500	 7.063261	 22.052240	-0.969799	-5.032431	 0.547672	-2.758033	 62.814790	-4.626557	-1.288183	 28.361890	 2.710176	-0.860031	 6.676723	 3.247116	 0.627318	-10.101990	-1.211742	 0.052759	 11.032780	 2.856320	-118.812300	-1.190288	 89.769870	 25.755110	-5.328092	-3.960969	 5.920034	 0.552883	 35.119010	-7.234273	 9.342444	-0.903731	-6.580301	 5.266122	 0.000000	 0.000000	 0.000000	 0.000000	 0.000000	 0.000000	 0.000000	 5.771361	 30.072670	 0.894536	-4.089460	-17.644690	 1.017071	 118.422100	-1.025462	-90.355840	-11.385490	-10.398140	 18.827610	-5.756284	 1.549865	-58.706780	-22.753250	-2.062712	 6.561151	 15.208500	 5.323790	 0.000000	 0.000000	 0.000000	 0.000000	 0.000000	 0.000000	 0.000000
 0.437972	 1.281768	 0.417752	 0.460431	-4.639590	-177.101300	-178.832900	 5.886932	-22.250970	 1.318342	-4.949721	 6.075993	 8.110765	 64.835960	-1.724649	 1.292262	 28.425850	-2.713146	 176.132400	 7.858249	 24.170570	-0.967793	-5.022005	 0.373452	-3.787728	 62.633470	-4.205004	-1.288183	 28.361890	 2.710176	-1.236854	 6.819613	 5.379393	 0.612688	-11.369660	-1.260650	 0.077235	 12.340360	 2.841781	-119.360100	-1.355022	 89.690830	 25.319630	-7.772014	-3.020429	 6.488655	 0.878799	 35.402730	-3.748797	 11.969750	 0.184799	-6.580301	 5.266122	 0.000000	 0.000000	 0.000000	 0.000000	 0.000000	 0.000000	 0.000000	 6.189139	 31.266020	 0.539312	-4.130976	-18.240490	 1.088160	 119.286500	-1.259957	-90.263380	-11.074300	-13.284670	 18.424400	-6.064042	 2.107373	-59.515980	-26.165330	 0.727042	 5.546653	 15.208500	 5.323790	 0.000000	 0.000000	 0.000000	 0.000000	 0.000000	 0.000000	 0.000000
 0.438182	 1.282819	 0.419312	 0.433630	-4.892622	-177.087500	-178.789600	 6.232464	-24.359590	 1.316903	-4.944365	 6.121956	 8.672968	 64.763260	-1.882515	 1.292262	 28.425850	-2.713146	 175.997000	 8.192347	 26.315430	-0.966936	-5.017541	 0.308685	-4.453368	 62.593890	-4.020481	-1.288183	 28.361890	 2.710176	-1.383492	 6.831414	 6.178376	 0.559095	-11.788150	-1.285959	 0.108532	 12.806560	 2.837319	-119.566700	-1.416922	 89.660620	 25.004170	-8.502977	-2.692197	 6.687888	 0.996335	 35.524640	-2.377095	 12.707700	 0.486671	-6.580301	 5.266122	 0.000000	 0.000000	 0.000000	 0.000000	 0.000000	 0.000000	 0.000000	 6.350317	 31.715420	 0.401533	-4.146563	-18.464840	 1.115602	 119.612500	-1.347994	-90.227580	-10.886130	-14.060990	 18.289500	-6.162216	 2.314413	-59.845470	-27.356750	 1.493592	 5.128643	 15.208500	 5.323790	 0.000000	 0.000000	 0.000000	 0.000000	 0.000000	 0.000000	 0.000000
 0.438182	 1.282283	 0.418648	 0.450257	-4.830843	-177.101500	-178.670500	 6.108834	-26.388860	 1.317518	-4.946680	 6.090687	 8.810811	 64.856450	-1.860121	 1.292262	 28.425850	-2.713146	 175.932500	 8.063243	 28.305780	-0.967548	-5.020750	 0.352637	-4.661836	 62.681240	-4.071934	-1.288183	 28.361890	 2.710176	-1.281570	 6.723421	 5.634733	 0.480939	-11.414830	-1.279428	 0.140991	 12.450270	 2.839871	-119.426400	-1.374910	 89.681140	 24.864810	-7.461271	-2.926408	 6.510542	 0.920302	 35.440690	-3.214346	 11.455710	 0.220813	-6.580301	 5.266122	 0.000000	 0.000000	 0.000000	 0.000000	 0.000000	 0.000000	 0.000000	 6.240644	 31.410280	 0.495327	-4.135984	-18.312500	 1.096931	 119.391100	-1.288242	-90.251950	-10.874020	-12.716240	 18.388920	-6.037854	 2.172605	-59.620680	-26.257060	 0.276271	 5.100822	 15.208500	 5.323790	 0.000000	 0.000000	 0.000000	 0.000000	 0.000000	 0.000000	 0.000000
 0.437879	 1.280126	 0.415623	 0.517919	-4.392240	-177.139700	-178.421800	 6.081283	-26.506480	 1.654752	-6.203612	 6.015757	 8.315285	 65.707730	-1.825122	 1.292262	 28.425850	-2.713146	 176.027200	 7.423864	 28.307690	-0.969299	-5.029718	 0.504758	-4.029366	 62.824630	-4.408407	-1.288183	 28.361890	 2.710176	-0.936063	 6.537945	 3.767149	 0.470522	-10.307400	-1.234526	 0.130835	 11.305430	 2.851968	-118.945900	-1.230539	 89.750730	 25.059070	-5.101657	-3.744988	 5.985562	 0.640541	 35.181870	-6.182027	 8.831211	-0.738643	-6.580301	 5.266122	 0.000000	 0.000000	 0.000000	 0.000000	 0.000000	 0.000000	 0.000000	 5.871984	 30.363900	 0.809236	-4.099607	-17.790110	 1.034182	 118.632900	-1.082779	-90.333630	-11.065170	-9.886912	 18.738610	-5.726834	 1.684257	-58.895080	-23.201770	-2.463459	 5.844572	 15.208500	 5.323790	 0.000000	 0.000000	 0.000000	 0.000000	 0.000000	 0.000000	 0.000000
 0.437385	 1.276729	 0.410927	 0.617069	-3.631926	-177.209200	-177.776600	 7.191777	-26.715870	 2.862686	-10.647060	 6.004633	 7.609093	 68.319700	-2.114133	 1.292262	 28.425850	-2.713146	 175.710900	 7.794210	 28.363500	-1.563516	-8.079521	 0.706825	-2.749539	 64.576550	-4.853968	-1.288183	 28.361890	 2.710176	-0.384590	 6.145300	 0.520106	 0.451702	-8.267412	-1.170539	 0.110487	 9.268051	 2.881706	-118.115900	-0.979674	 89.868110	 25.216870	-1.336837	-5.312757	 5.087372	 0.109304	 34.853030	-11.046870	 4.731413	-2.977934	-6.580301	 5.266122	 0.000000	 0.000000	 0.000000	 0.000000	 0.000000	 0.000000	 0.000000	 5.259339	 28.552240	 1.325926	-4.036311	-16.885680	 0.930155	 117.323300	-0.725247	-90.468340	-11.215380	-5.276425	 19.438130	-5.189261	 0.819618	-57.833270	-18.227800	-7.170585	 7.844766	 15.208500	 5.323790	 0.000000	 0.000000	 0.000000	 0.000000	 0.000000	 0.000000	 0.000000
 0.437146	 1.274643	 0.413327	 0.724040	-4.036199	-177.163700	-177.418000	 8.808325	-26.681840	 3.482668	-12.880020	 6.229318	 8.352514	 69.363010	-2.868234	 1.292262	 28.425850	-2.713146	 175.450500	 9.316220	 28.410980	-1.995669	-10.269440	 0.496508	-3.240008	 65.667050	-4.318713	-1.288183	 28.361890	 2.710176	 0.425062	 6.437613	-6.163170	 0.386892	-7.999696	-1.180729	 0.171157	 9.714087	 2.861170	-118.547500	-1.110383	 89.807520	 27.412410	 1.780963	-4.377316	 5.628214	 0.387306	 28.814550	-12.675290	 3.043867	-2.701976	-6.580301	 5.266122	 0.000000	 0.000000	 0.000000	 0.000000	 0.000000	 0.000000	 0.000000	 5.574240	 29.495010	 1.061147	-4.069300	-17.356330	 0.983564	 118.004300	-0.911599	-90.399280	-13.197470	-1.545864	 19.014860	-5.664322	 1.277595	-52.162700	-15.709280	-8.409286	 5.552722	 15.208500	 5.323790	 0.000000	 0.000000	 0.000000	 0.000000	 0.000000	 0.000000	 0.000000
 0.437054	 1.273743	 0.424063	 0.861071	-5.629386	-177.001800	-177.213700	 11.602640	-26.420370	 3.822634	-14.087700	 6.677626	 10.702860	 69.368790	-4.365286	 1.292262	 28.425850	-2.713146	 175.357500	 11.734230	 28.415790	-2.120786	-10.898000	-0.046239	-5.613121	 65.661290	-2.758338	-1.288183	 28.361890	 2.710176	 1.289607	 7.340031	-12.274710	 0.283105	-9.017096	-1.251807	 0.310281	 12.368710	 2.802796	-120.198300	-1.605453	 89.566880	 32.388750	 4.772623	-1.351339	 7.596668	 1.310069	 20.442000	-12.016920	 3.736243	-0.520050	-6.580301	 5.266122	 0.000000	 0.000000	 0.000000	 0.000000	 0.000000	 0.000000	 0.000000	 6.855962	 33.086900	-0.033225	-4.193965	-19.149780	 1.201576	 120.609400	-1.615817	-90.115100	-17.915260	 2.170559	 17.685200	-7.155687	 2.955520	-45.419770	-14.147310	-6.470070	-0.261729	 15.208500	 5.323790	 0.000000	 0.000000	 0.000000	 0.000000	 0.000000	 0.000000	 0.000000
